<svg xmlns="http://www.w3.org/2000/svg" xmlns:xlink="http://www.w3.org/1999/xlink" aria-hidden="true" role="img" class="iconify iconify--logos" width="31.88" height="32" preserveAspectRatio="xMidYMid meet" viewBox="0 0 256 257"><defs><linearGradient id="IconifyId1813088fe1fbc01fb466" x1="-.828%" x2="57.636%" y1="7.652%" y2="78.411%"><stop offset="0%" stop-color="#41D1FF"></stop><stop offset="100%" stop-color="#BD34FE"></stop></linearGradient><linearGradient id="IconifyId1813088fe1fbc01fb467" x1="43.376%" x2="50.316%" y1="2.242%" y2="89.03%"><stop offset="0%" stop-color="#FFBD4F"></stop><stop offset="100%" stop-color="#FF980E"></stop></linearGradient></defs><path fill="url(#IconifyId1813088fe1fbc01fb466)" d="M255.153 37.938L134.897 252.976c-2.483 4.44-8.862 4.466-11.382.048L.875 37.958c-2.746-4.814 1.371-10.646 6.827-9.67l120.385 21.517a6.537 6.537 0 0 0 2.322-.004l117.867-21.483c5.438-.991 9.574 4.796 6.877 9.62Z"></path><path fill="url(#IconifyId1813088fe1fbc01fb467)" d="M185.432.063L96.44 17.501a3.268 3.268 0 0 0-2.634 3.014l5.093 119.888c.15 3.514-2.797 6.592-6.312 6.592h-.004a6.596 6.596 0 0 1-6.31-6.314L83.75 51.718a3.268 3.268 0 0 0-2.813-2.92L40.715 45.58a6.652 6.652 0 0 0-7.46 9.056l55.965 129.941a6.596 6.596 0 0 1-6.038 9.36 6.596 6.596 0 0 1-6.055-6.164l-7.087-131.77a3.268 3.268 0 0 0-1.911-2.842L4.31 72.952a6.652 6.652 0 0 0-3.054 8.876l65.48 129.405a6.652 6.652 0 0 0 9.376 2.778l180.2-102.346a6.652 6.652 0 0 0 2.778-9.376L189.95 2.197a6.652 6.652 0 0 0-4.518-2.134Z"></path></svg>
